<?xml version="1.0" encoding="utf-8"?>
<!-- Designed by Vexels.com - 2019 All Rights Reserved - https://vexels.com/terms-and-conditions/  -->
<svg version="1.1" id="Capa_1" xmlns="http://www.w3.org/2000/svg" xmlns:xlink="http://www.w3.org/1999/xlink" x="0px" y="0px"
	 viewBox="0 0 1200 1200" enable-background="new 0 0 1200 1200" xml:space="preserve">
<g>
	<g>
		<path fill="#1B3B68" d="M1148.412,766.746c-4.669-30.946-20.334-53.565-44.111-63.689c-25.159-10.709-56.177-5.767-82.982,13.21
			c-3.006,2.125-3.956,6.155-2.219,9.4c1.734,3.245,5.598,4.692,9.052,3.374c20.841-7.988,41.486-8.04,56.636-0.143
			c10.315,5.376,17.202,13.989,19.917,24.906c2.462,9.896-0.587,20.086-8.581,28.688c-10.712,11.527-33.023,21.977-63.472,16.727
			c-48.314-8.31-108.279-33.539-208.797-130.513c-91.247-88.048-194.722,7.758-219.871,29.737
			c-25.156-21.974-145.146-115.001-236.35-26.991c-102.224,98.622-154.996,119.975-200.29,127.766
			c-30.447,5.25-52.755-5.199-63.469-16.729c-7.991-8.602-11.037-18.789-8.573-28.688c2.71-10.914,9.591-19.524,19.904-24.9
			c15.155-7.903,35.803-7.848,56.639,0.14c3.448,1.315,7.318-0.128,9.052-3.374c1.737-3.242,0.787-7.272-2.219-9.4
			c-26.802-18.982-57.825-23.919-82.976-13.21c-23.779,10.121-39.448,32.74-44.116,63.689
			c-3.057,20.237-5.855,72.807,34.086,123.739c40.717,51.919,110.597,82.731,207.705,91.575
			c111.467,10.17,189.875-24.002,236.007-54.449c39.077-25.784,64.696-47.361,73.366-58.777
			c8.667,11.416,28.793,32.993,67.867,58.777c40.474,26.708,105.772,56.277,196.457,56.274c12.688,0,25.873-0.579,39.556-1.825
			c97.113-8.847,166.997-39.658,207.708-91.581C1154.275,839.544,1151.472,786.98,1148.412,766.746z M1036.937,814.012
			c10.556,1.492,21.24,3.267,31.409,6.545c-16.056,18.579-53.086,13.508-63.409-8.846
			C1015.612,811.31,1026.381,812.52,1036.937,814.012z M1026.542,859.076c-12.321,16.718-42.687,16.2-54.326-1.046
			C989.009,851.566,1009.999,852.024,1026.542,859.076z M928.251,826.452c-15.998-2.627-32.998-9.834-42.602-23.493
			c14.019,1.71,27.995,3.896,41.995,5.776c18.05,2.423,36.841,4.168,53.912,10.871C965.378,827.551,945.893,829.349,928.251,826.452
			z M754.004,758.426c17.017,13.447,32.086,28.424,45.782,45.236C776.626,810.258,747.609,781.693,754.004,758.426z
			 M754.004,815.845c-13.503-3.728-25.892-11.458-36.67-20.247c-10.415-8.493-20.121-18.725-26.329-30.749
			c13.953,1.451,27.179,8.876,37.904,17.585C739.638,791.146,749.644,802.508,754.004,815.845z M797.533,739.305
			c17.49,4.439,32.739,15.951,47.779,25.545c7.338,4.681,14.76,9.226,22.159,13.809c-13.832,6.332-30.666,1.565-42.865-6.239
			C812.522,764.69,802.406,752.873,797.533,739.305z M810.734,849.638c10.869,6.61,21.919,13.399,31.531,21.784
			c-26.208,8.167-60.603-12.558-65.433-39.655C788.722,836.375,799.868,843.029,810.734,849.638z M820.835,806.945
			c19.113,1.016,40.042,9.834,54.208,22.668C856.042,840.66,826.271,828.319,820.835,806.945z M953.036,851.595
			c-13.28,8.084-29.551,11.376-44.92,12.074c-14.319,0.649-32.447-0.38-44.342-9.385
			C891.841,845.946,924.831,841.007,953.036,851.595z M961.107,885.645c-15.389,10.638-35.581,14.655-53.965,15.557
			c-17.665,0.867-38.916-0.745-53.577-11.759C889.152,884.93,925.322,879.868,961.107,885.645z M899.029,745.123
			c11.741,8.33,23.528,17.438,32.774,28.56c-29.219,1.6-62.371-22.076-70.492-50.174
			C874.838,728.637,887.286,736.791,899.029,745.123z M814.63,683.559c13.733,15.847,28.206,35.03,33.31,55.745
			c-15.638-14.366-31.244-28.533-45.915-43.912c-12.429-13.029-25.214-24.871-41.208-33.496
			C781.427,653.551,801.879,668.845,814.63,683.559z M707.629,650.627c11.321-2.535,28.216-3.546,37.906,4.256
			c-10.582,5.674-21.249,10.219-33.076,12.627c-6.042,1.231-12.173,1.964-18.336,2.195c-5.505,0.206-11.083-0.392-16.567,0.094
			C681.158,658.721,697.511,652.892,707.629,650.627z M700.33,683.972c12.085-1.382,24.524-2.378,35.898,2.847
			c20.193,9.276,38.478,25.823,47.247,46.497c-15.115-12.408-31.661-22.83-49.875-30.012c-9.104-3.59-18.994-2.932-28.6-3.492
			c-11.738-0.685-24.039-4.787-35.654-1.294C674.675,687.334,689.469,685.214,700.33,683.972z M689.341,724.763
			c9.777,0.618,19.574,2.076,29.097,4.377c9.282,2.242,19.48,5.199,27.097,11.208c-17.836,0.563-35.452,2.361-53.34,1.911
			c-14.387-0.362-29.534-1.41-42.812,5.122C651.18,729.203,674.555,723.828,689.341,724.763z M647.479,691.486
			c0.393,19.642-11.709,39.894-29.286,48.716C614.157,721.001,628.629,696.99,647.479,691.486z M636.406,769.243
			c12.67-0.76,28.16,1.789,37.193,11.561c-24.111,5.97-48.024,7.511-72.686,4.476C608.65,774.453,623.739,770.003,636.406,769.243z
			 M600.016,785.28c-24.662,3.036-48.574,1.494-72.686-4.476c9.032-9.772,24.522-12.321,37.193-11.561
			C577.191,770.003,592.279,774.453,600.016,785.28z M582.737,740.203c-17.577-8.822-29.679-29.074-29.286-48.716
			C572.3,696.99,586.772,721.001,582.737,740.203z M551.546,747.383c-13.278-6.532-28.424-5.484-42.812-5.122
			c-17.888,0.45-35.505-1.348-53.34-1.911c7.617-6.009,17.815-8.966,27.097-11.208c9.523-2.301,19.32-3.76,29.097-4.377
			C526.375,723.828,549.75,729.203,551.546,747.383z M347.366,889.443c-14.661,11.014-35.913,12.626-53.577,11.759
			c-18.384-0.902-38.576-4.918-53.965-15.557C275.608,879.868,311.778,884.93,347.366,889.443z M247.893,851.595
			c28.205-10.588,61.195-5.649,89.262,2.689c-11.895,9.005-30.023,10.034-44.342,9.385
			C277.444,862.971,261.173,859.679,247.893,851.595z M325.886,829.613c14.167-12.834,35.096-21.652,54.208-22.668
			C374.658,828.319,344.887,840.66,325.886,829.613z M333.458,778.658c7.4-4.583,14.821-9.128,22.159-13.809
			c15.04-9.593,30.288-21.105,47.779-25.545c-4.872,13.568-14.989,25.385-27.073,33.115
			C364.125,780.223,347.291,784.99,333.458,778.658z M390.196,849.638c10.866-6.61,22.012-13.264,33.903-17.871
			c-4.83,27.097-39.226,47.822-65.434,39.655C368.277,863.037,379.327,856.248,390.196,849.638z M401.144,803.662
			c13.696-16.812,28.764-31.789,45.782-45.236C453.321,781.693,424.303,810.258,401.144,803.662z M472.021,782.434
			c10.725-8.708,23.951-16.134,37.904-17.585c-6.208,12.024-15.914,22.256-26.329,30.749c-10.778,8.79-23.167,16.519-36.67,20.247
			C451.286,802.508,461.292,791.146,472.021,782.434z M531.583,698.518c-11.615-3.493-23.916,0.61-35.654,1.294
			c-9.605,0.56-19.496-0.099-28.6,3.492c-18.214,7.182-34.759,17.604-49.875,30.012c8.769-20.673,27.054-37.221,47.247-46.497
			c11.374-5.225,23.813-4.229,35.898-2.847C511.46,685.214,526.255,687.334,531.583,698.518z M493.301,650.627
			c10.118,2.265,26.471,8.094,30.072,19.172c-5.484-0.486-11.062,0.112-16.567-0.094c-6.162-0.231-12.293-0.964-18.336-2.195
			c-11.827-2.408-22.494-6.953-33.076-12.627C465.084,647.081,481.98,648.092,493.301,650.627z M386.3,683.559
			c12.751-14.715,33.203-30.009,53.813-21.663c-15.994,8.625-28.779,20.468-41.208,33.496
			c-14.671,15.379-30.277,29.547-45.915,43.912C358.094,718.589,372.567,699.406,386.3,683.559z M301.9,745.123
			c11.743-8.333,24.191-16.487,37.718-21.614c-8.121,28.098-41.273,51.774-70.491,50.174
			C278.372,762.561,290.16,753.453,301.9,745.123z M273.286,808.735c14-1.88,27.975-4.066,41.995-5.776
			c-9.604,13.659-26.604,20.866-42.602,23.493c-17.642,2.897-37.127,1.098-53.305-6.846
			C236.445,812.904,255.237,811.158,273.286,808.735z M228.714,858.03c-11.639,17.246-42.005,17.764-54.326,1.046
			C190.931,852.024,211.92,851.566,228.714,858.03z M199.254,892.667c-9.576,7.591-23.908,6.164-34.607,2.044
			c-10.683-4.115-20.465-11.634-26.254-21.614C159.954,870.05,181.337,882.295,199.254,892.667z M163.992,814.012
			c10.556-1.491,21.326-2.701,32.001-2.301c-10.323,22.354-47.354,27.425-63.409,8.846
			C142.752,817.279,153.437,815.504,163.992,814.012z M73.713,785.28c-10.156-12.432-11.624-27.502-5.899-42.177
			c5.041-12.917,17.585-27.402,33.007-25.095c-8.937,9.026-13.757,20.896-17.306,32.892c-1.556,5.261-3.476,10.459-4.542,15.845
			C77.721,773.08,76.568,779.423,73.713,785.28z M82.241,850.087c7.553,7.713,14.183,16.366,20.716,24.941
			c6.534,8.574,13.087,17.291,18.461,26.654C96.336,904.457,72.922,873.47,82.241,850.087z M97.782,838.163
			c-9.8-11.835-19.217-29.403-11.017-44.612c5.338,13.58,15.195,23.272,24.773,33.914c8.747,9.719,19.506,18.164,26.854,29.035
			C122.314,857.503,107.894,850.375,97.782,838.163z M138.392,911.334c17.281-6.596,36.494-2.392,49.335,10.95
			C173.273,932.667,147.142,926.83,138.392,911.334z M195.001,934.455c18.956,1.006,39.688,10.352,52.892,23.987
			C228.717,968.437,200.175,955.441,195.001,934.455z M263.712,930.366c-15.554-4.687-31.547-12.896-42.265-25.382
			c14.776-0.521,29.622,2.928,43.605,7.422c14.814,4.76,28.4,11.971,42.747,17.826C295.081,937.757,276.976,934.362,263.712,930.366
			z M332.667,968.708c-14.146-0.083-30.188-2.62-41.811-11.264c26.516-8.737,57.289-8.673,83.717,0.366
			C362.896,966.381,346.811,968.79,332.667,968.708z M376.4,929.655c-12.822,2.487-28.191,1.944-39.245-5.807
			c22.024-10.651,48.001-15.505,72.379-13.335C402.268,921.313,388.777,927.255,376.4,929.655z M440.375,946.839
			c-8.445,4.923-21.737,9.486-30.84,3.621c13.779-12.698,31.36-30.965,52.371-26.298
			C456.713,933.434,449.616,941.45,440.375,946.839z M423.003,893.74c8.87-9.647,19.922-17.357,30.931-24.353
			c10.587-6.728,21.83-13.15,33.85-16.932C481.465,878.516,449.221,898.932,423.003,893.74z M527.067,892.119
			c-10.08,12.917-24.862,27.479-42.223,28.512c11.272-13.359,20.237-28.539,30.814-42.438c9.878-12.979,21.193-26.7,35.889-34.395
			C546.541,861.158,538.191,877.866,527.067,892.119z M540.828,819.66c-7.995,4.569-16.627,8.018-25.422,10.708
			c-8.419,2.576-17.06,4.454-25.785,5.635c-9.252,1.253-18.435,1.01-27.716,1.578c3.255-4.521,8.619-7.771,13.341-10.466
			c7.999-4.567,16.625-8.013,25.417-10.72c8.417-2.591,17.048-4.487,25.775-5.67c9.257-1.255,18.435-1.013,27.722-1.555
			C550.92,813.703,545.546,816.964,540.828,819.66z M611.611,849.308c-5.435-8.837-9.833-19.107-11.146-29.6
			c-1.313,10.493-5.711,20.763-11.147,29.6c-6.574,10.691-15.588,21.031-27.059,26.577c1.629-24.179,17.268-50.547,37.8-63.629
			c0.005-0.182-0.015-0.364-0.008-0.545c0.139,0.086,0.274,0.188,0.413,0.275c0.139-0.088,0.273-0.189,0.413-0.275
			c0.007,0.182-0.012,0.363-0.007,0.545c20.532,13.083,36.17,39.45,37.8,63.629C627.2,870.338,618.185,859.998,611.611,849.308z
			 M674.491,810.726c8.727,1.183,17.358,3.078,25.775,5.67c8.792,2.706,17.418,6.153,25.417,10.72
			c4.721,2.695,10.086,5.945,13.341,10.466c-9.28-0.568-18.463-0.325-27.716-1.578c-8.725-1.181-17.365-3.06-25.785-5.635
			c-8.795-2.69-17.427-6.139-25.422-10.708c-4.718-2.696-10.092-5.958-13.333-10.489
			C656.056,809.714,665.234,809.471,674.491,810.726z M673.863,892.119c-11.123-14.253-19.474-30.961-24.479-48.321
			c14.695,7.695,26.011,21.416,35.889,34.395c10.578,13.899,19.542,29.078,30.814,42.438
			C698.725,919.598,683.943,905.035,673.863,892.119z M713.146,852.454c12.021,3.782,23.263,10.204,33.85,16.932
			c11.008,6.997,22.06,14.707,30.931,24.353C751.709,898.932,719.464,878.516,713.146,852.454z M760.555,946.839
			c-9.242-5.389-16.338-13.405-21.531-22.676c21.011-4.667,38.593,13.599,52.371,26.298
			C782.292,956.325,769,951.762,760.555,946.839z M791.395,910.513c24.378-2.171,50.355,2.684,72.379,13.335
			c-11.055,7.751-26.423,8.294-39.245,5.807C812.153,927.255,798.662,921.313,791.395,910.513z M868.263,968.708
			c-14.144,0.082-30.229-2.327-41.906-10.898c26.428-9.039,57.201-9.103,83.717-0.366
			C898.45,966.088,882.409,968.626,868.263,968.708z M893.13,930.232c14.347-5.855,27.934-13.066,42.747-17.826
			c13.984-4.493,28.829-7.943,43.605-7.422c-10.717,12.486-26.711,20.695-42.265,25.382
			C923.954,934.362,905.848,937.757,893.13,930.232z M953.036,958.442c13.204-13.635,33.936-22.981,52.892-23.987
			C1000.755,955.441,972.213,968.437,953.036,958.442z M1013.202,922.284c12.841-13.342,32.054-17.545,49.335-10.95
			C1053.788,926.83,1027.657,932.667,1013.202,922.284z M1036.282,894.711c-10.699,4.121-25.031,5.547-34.607-2.044
			c17.917-10.372,39.3-22.617,60.861-19.57C1056.748,883.077,1046.967,890.596,1036.282,894.711z M1062.537,856.501
			c7.348-10.871,18.107-19.316,26.854-29.035c9.579-10.642,19.436-20.335,24.773-33.914c8.201,15.209-1.216,32.777-11.016,44.612
			C1093.036,850.375,1078.615,857.503,1062.537,856.501z M1079.511,901.682c5.374-9.363,11.927-18.08,18.461-26.654
			c6.534-8.575,13.163-17.229,20.716-24.941C1128.008,873.47,1104.594,904.457,1079.511,901.682z M1127.217,785.28
			c-2.856-5.857-4.008-12.2-5.261-18.535c-1.066-5.386-2.986-10.584-4.542-15.845c-3.548-11.995-8.369-23.865-17.306-32.892
			c15.423-2.307,27.967,12.178,33.008,25.095C1138.841,757.777,1137.374,772.847,1127.217,785.28z"/>
		<path fill="#1B3B68" d="M87.689,332.522c1.883,14.482,4.448,28.821,5.867,43.366c0.909,9.319-1.445,28.803,11.67,27.512
			c3.841-0.378,6.534-0.722,7.289-4.85c0.616-3.371-0.676-8.176-0.955-11.561c-0.885-10.717-1.752-21.507-3.615-32.104
			c-3.848-21.9-5.177-44.221-8.011-66.277c7.248,8.774,14.404,17.184,21.039,26.513c4.426,6.223,9.824,17.39,16.74,20.571
			c3.712,1.707,9.562,2.867,12.02-1.197c1.153-1.905,1.079-4.957,1.605-7.18c0.941-3.981,2.619-8.024,4.248-11.763
			c4.25-9.754,9.004-19.553,13.685-29.122c2.845,24.416,9.088,48.73,13.339,72.966c1.319,7.499,2.371,15.136,3.399,22.513
			c0.544,3.902,0.595,7.853,4.647,9.82c2.776,1.347,7.816,1.059,10.05-1.053c4.313-4.077,0.415-19.342-0.242-24.377
			c-1.521-11.655-4.093-23.119-6.103-34.687c-3.786-21.789-7.722-43.273-9.893-65.308c-0.564-5.724-0.843-11.759-2.068-17.38
			c-0.829-3.808-2.529-6.589-6.786-7.157c-6.204-0.828-8.335,4.568-9.996,9.478c-7.014,20.741-17.619,41.152-26.936,60.952
			c-7.883-12.007-17.858-23.615-27.161-34.62c-6.03-7.133-15.562-28.517-27.995-22.179c-7.956,4.057-1.161,24.327-0.176,31.321
			C85.485,301.899,85.712,317.315,87.689,332.522z"/>
		<path fill="#1B3B68" d="M217.107,286.218c1.156,11.541,4.841,22.996,6.181,34.638c1.635,14.201,3.622,28.464,6.316,42.332
			c1.085,5.585,0.367,17.606,4.72,21.782c3.477,3.336,8.457,2.833,12.906,2.567c8.179-0.49,19.352-0.824,27.779-3.333
			c3.361-1.254,5.212-4.471,4.088-7.879c-1.541-4.676-6.197-4.913-10.249-4.64c-5.372,0.363-10.464,1.504-15.81,2.06
			c-2.253,0.234-3.622,0.581-5.043-0.868c-2.06-2.102-1.544-10.197-2.173-12.941c-1.378-6.004-1.918-12.166-2.914-18.323
			c6.07-0.841,12.043-2.79,18.037-3.676c4.38-0.648,10.817,1.065,13.863-2.979c5.203-6.909-4.044-11.407-9.662-11.138
			c-8.264,0.396-16.263,2.119-24.377,3.539c-2.548-16.065-5.493-32.119-7.569-48.256c-0.589-4.577-1.1-9.165-1.594-13.753
			c-0.426-3.958-2.165-9.836-1.291-13.618c0.87-3.764,1.429-3.326,5.911-4.547c5.113-1.394,10.372-2.417,15.563-3.463
			c5.168-1.041,16.387-0.531,17.441-7.128c1.226-7.669-7.216-8.982-12.702-8.83c-7.694,0.213-15.414,2.178-22.741,4.395
			c-5.3,1.604-11.985,1.863-16.971,3.805c-6.331,2.466-2.499,18.37-2.021,23.922C215.554,268.663,216.229,277.455,217.107,286.218z"
			/>
		<path fill="#1B3B68" d="M303.311,288.262c1.497,17.951,2.371,35.963,3.558,53.937c0.387,5.86,0.837,11.712,1.484,17.55
			c0.64,5.769,0.349,19.768,7.213,22.193c5.163,1.824,10.002-2.784,10.769-7.447c1.09-6.617-1.554-15.297-2.139-21.984
			c-2.15-24.574-2.782-49.365-5.748-73.854c12.297,17.74,21.842,37.489,35.976,53.913c7.881,9.158,6.097,26.042,8.428,37.634
			c0.876,4.361,2.01,8.647,7.108,8.742c8.637,0.162,10.377-6.908,9.34-13.763c-6.475-42.372-7.848-85.375-13.887-127.831
			c-1.101-7.74-3.087-22.583-14.844-16.591c-7.584,3.865-1.742,19.815-0.9,26.602c2.445,19.715,4.333,39.496,6.361,59.256
			c-8.898-14.347-17.81-28.743-26.53-43.205c-3.997-6.629-7.481-13.435-11.136-20.243c-1.901-3.542-4.575-10.525-7.956-12.939
			c-4.094-2.923-12.949-1.244-14.226,4.096c-1.175,4.915,1.808,12.974,2.459,17.878
			C300.236,264.214,302.304,276.183,303.311,288.262z"/>
		<path fill="#1B3B68" d="M408.124,255.901c5.167-0.255,6.487-6.164,8.771-9.749c2.589-4.063,5.817-7.791,7.847-12.253
			c3.227-7.095-3.436-16.513-10.876-10.192C408.625,228.16,390.43,256.556,408.124,255.901z"/>
		<path fill="#1B3B68" d="M469.695,330.247c-1.485-5.884-7.223-6.242-11.68-3.07c-11.631,8.278-3.666,31.083,4.172,39.599
			c13.44,14.603,40.423,5.237,47.922-10.866c6.4-11.901-3.944-23.133-10.799-31.873c-5.934-7.567-12.145-15.135-17.344-23.221
			c-6.973-10.845-10.486-24.291-11.421-37.093c-0.486-6.655,0.055-18.824,6.362-22.755c10.528-6.563,18.569-1.314,20.145,10.852
			c0.88,6.797-1.934,28.929,11.568,23.163c7.458-3.185,5.46-12.605,4.98-19.131c-0.795-10.827-2.704-21.343-12.416-27.778
			c-12.269-8.129-30.082-4.214-39.542,6.716c-5.952,6.877-6.631,18.063-7.048,26.735c-0.548,11.393,1.973,23.531,6.181,34.102
			c6.14,15.427,16.762,27.526,26.891,40.34c3.287,4.157,9.444,10.509,7.719,16.261c-2.893,9.655-19.113,7.938-22.856,0.355
			C468.813,345.05,471.578,337.708,469.695,330.247z"/>
		<path fill="#1B3B68" d="M597.762,259.736c0.868,21.497,2.236,43.097,2.468,64.61c0.082,7.638,0.126,15.267,0.384,22.903
			c0.233,6.91-2.441,25.421,8.313,25.254c13.828,0,7.863-27.694,7.675-36.876c-0.038-1.861-0.575-5.254,0.436-6.335
			c1.356-1.45,9.036-1.384,10.793-1.64c4.252-0.619,13.464-3.485,17.568-2.16c2.915,0.941,1.919,3.145,2.115,6.708
			c0.225,4.107,0.571,8.2,0.768,12.308c0.333,6.968-1.781,14.982-0.419,21.863c1.806,9.126,14.494,6.939,15.944-1.605
			c1.475-8.692,1.185-18.647,0.414-27.298c-0.715-17.915-1.95-35.643-2.465-53.612c-0.319-11.124,0.076-22.244,0.346-33.366
			c0.191-7.842,4.102-27.124-6.68-29.121c-13.213-2.448-10.114,30.626-10.313,40.018c-0.348,16.346-1.092,33.831,1.038,50
			c-9.9-0.202-19.815,1.738-29.614,2.962c1.193-26.727-3.551-53.624-2.138-80.454c0.329-6.238,1.659-12.452-5.33-15.397
			c-4.959-2.089-8.918-0.569-10.501,4.502c-1.389,4.45-0.793,9.911-0.868,14.498C597.573,244.905,597.463,252.334,597.762,259.736z"
			/>
		<path fill="#1B3B68" d="M690.888,270.213c-0.061,12.344,1.996,24.817,1.903,37.289c-0.062,8.312,0.334,16.524,0.759,24.814
			c0.267,5.197,0.021,10.594,0.531,16.001c0.556,5.897-0.496,12.097,0.817,17.974c1.343,6.009,6.809,6.955,12.246,7.465
			c6.243,0.587,12.662-0.173,19.261-0.009c3.987,0.099,10.447,1.447,13.523-1.725c4.351-4.487,0.055-10.039-4.957-11.179
			c-5.933-1.35-20.183,3.118-23.874-1.576c-1.527-1.942-1.072-12.737-1.249-15.941c-0.285-5.179,0.169-10.488-0.019-15.692
			c6.009-0.182,12.046-1.175,17.999-1.404c4.526-0.174,12.027,2.523,15.099-1.926c4.675-6.772-3.471-11.252-8.871-11.644
			c-8.253-0.6-16.395,0.143-24.623,0.565c-0.869-24.561-2.318-49.137-1.351-73.724c0.156-3.982-0.373-4.412,2.94-5.798
			c2.971-1.244,7.262-1.037,10.446-1.351c6.504-0.642,13.024-0.807,19.522-1.3c6.234-0.473,11.292-6.038,5.67-11.702
			c-2.852-2.873-8.125-3.077-11.886-3.201c-8.713-0.309-17.096,1.237-25.638,2.65c-3.188,0.527-11.665-0.585-14.358,1.226
			c-4.556,3.066-2.842,19.4-3.009,24.27C691.469,252.924,690.932,261.582,690.888,270.213z"/>
		<path fill="#1B3B68" d="M776.4,373.692c9.029,4.519,9.87-10.593,10.407-15.519c0.508-4.662-1.024-20.214,2.067-21.919
			c0.748-0.412,3.64-0.115,4.635-0.159c5.261-0.234,10.464-0.492,15.732-0.481c3.532,0.007,9.142-0.448,10.213,2.601
			c0.648,1.844-0.334,6.592-0.398,8.581c-0.17,5.34-0.29,10.686-0.361,16.028c-0.081,6.14-1.673,16.332,7.059,16.876
			c8.07,0.502,8.989-5.731,8.625-11.589c-0.841-13.495,0.939-27.333,1.569-40.802c0.52-11.105,0.212-22.217,0.712-33.325
			c0.53-11.769,3.094-26.073,0.691-37.705c-2.073-19.79-14.332-28.987-33.502-30.112c-7.628-0.448-13.801-0.362-20.161,4.091
			c-7.602,5.323-8.496,15.408-9.383,23.862c-3.35,31.943-2.755,64.027-1.934,96.056C772.513,355.737,770.161,370.569,776.4,373.692z
			 M790.012,263.393c1.201-14.266-0.447-23.566,16.684-22.948c3.365,0.122,6.792,0.516,9.705,2.345
			c7.012,4.422,5.337,17.723,5.232,24.385c-0.286,18.303-1.315,36.594-1.538,54.893c-10.772-1.73-22.279-2.259-33.123-1.104
			C786.126,301.805,788.404,282.455,790.012,263.393z"/>
		<path fill="#1B3B68" d="M873.846,382.987c6.574,0.375,13.091,0.638,19.609,0.74c5.161,0.08,12.631-1.215,9.663-8.661
			c-2.913-7.306-17.025-6.164-23.155-6.726c-6.994-0.641-5.456-2.762-4.814-9.9c0.283-3.141,0.693-6.342,0.966-9.553
			c0.898-10.553,1.635-21.121,2.452-31.681c1.113-14.403,1.795-28.822,2.768-43.231c0.54-8.01,1.986-15.941,2.441-23.95
			c0.328-5.775-2.46-17.172-10.85-14.232c-6.404,2.244-5.407,16.984-5.913,22.459c-0.408,4.414-0.705,8.846-1.03,13.268
			c-0.612,8.336-0.896,16.688-1.542,25.028c-0.933,12.033-1.867,24.066-2.8,36.099c-0.343,4.428-0.68,8.856-1.063,13.28
			c-0.734,8.471-3.804,19.471-0.826,27.608C862.543,380.664,866.886,382.59,873.846,382.987z"/>
		<path fill="#1B3B68" d="M945.955,246.283c5.834,2.441,12.902,1.215,18.679,3.395c3.274,1.235,1.512-0.461,2.578,1.899
			c0.661,1.461-0.353,5.217-0.461,6.797c-1.298,19.148-3.503,38.152-5.611,57.224c-1.499,13.562-3.785,27.084-4.908,40.635
			c-0.668,8.054-1.586,16.237-1.884,24.313c-0.281,7.604,3.593,11.902,11.859,9.731c8.395-2.205,5.892-18.022,6.338-25.055
			c0.978-15.421,3.864-30.9,5.831-46.22c1.395-10.866,2.487-22.977,3.37-34.353c0.445-5.732-1.965-27.809,2.268-31.808
			c3.837-3.602,13.924,2.404,18.916,1.253c6.054-1.395,7.332-8.629,2.073-12.163c-6.294-4.223-17.179-4.068-24.483-5.053
			c-8.936-1.205-17.895-2.557-26.934-2.538c-3.642,0.008-9.591-0.228-11.839,3.352C939.289,241.606,942.479,244.829,945.955,246.283
			z"/>
		<path fill="#1B3B68" d="M1034.608,397.354c5.653-2.748,5.083-14.022,5.655-19.594c0.596-5.802-1.267-15.242,1.418-20.375
			c1.838-3.514,12.003-2.085,16.632-2.2c3.34-0.082,6.816-0.324,10.129-0.262c4.533,0.085,4.347,0.296,4.047,4.713
			c-0.63,9.281-1.08,18.201-2.554,27.393c-1.049,6.535-3.108,13.66,5.327,15.351c10.101,2.025,10.244-9.023,11.356-16.278
			c3.019-19.679,2.696-39.647,4.372-59.448c0.961-11.346,1.969-22.584,3.531-33.872c0.958-6.925,1.928-13.852,2.815-20.786
			c0.575-4.499,2.827-13.211-0.792-16.916c-11.916-12.212-15.069,11.953-16.115,18.594c-0.838,5.319-1.633,10.646-2.349,15.983
			c-2.253,16.802-5.134,34.603-4.804,51.525c-9.917-1.278-19.808-0.156-29.762-0.351c3.96-24.802,2.833-50.552,6.13-75.529
			c1.042-7.897,5.51-19.542-6.095-21.689c-10.358-1.917-9.765,15.223-10.558,21.626c-4.613,37.211-6.317,74.98-9.402,112.354
			C1023.052,384.101,1021.345,403.801,1034.608,397.354z"/>
		<path fill="#1B3B68" d="M181.91,449.691c-8.136,10.511-3.931,28.068-2.747,40.374c1.566,16.276,2.774,32.67,5.691,48.765
			c1.776,9.8,3.739,19.56,5.503,29.362c1.01,5.615,1.051,22.597,9.19,22.905c8.999,0.341,6.493-14.551,6.154-19.875
			c-0.306-4.811-0.969-9.547-1.716-14.305c-0.735-4.676-1.041-4.691,3.582-5.633c7.542-1.538,15.393-3.406,23.025-3.545
			c3.445-0.062,3.436-0.5,4.498,1.489c1.253,2.345,0.947,8.843,1.261,11.31c0.876,6.891,0.164,20.724,4.779,26.287
			c5.96,7.183,18.7-2.207,13.344-9.883c-2.652-9.663-2.713-20.597-3.694-30.488c-2.041-20.59-4.567-41.304-7.417-61.799
			c-1.984-14.267-2.401-31.223-16.001-39.557C215.246,437.675,191.301,437.561,181.91,449.691z M193.851,460.884
			c1.705-4.92,9.205-5.821,13.83-6.363c3.336-0.391,6.776-0.516,9.927,0.845c7.553,3.294,7.954,16.669,8.868,23.316
			c2.494,18.134,4.235,36.372,6.8,54.492c-10.894-0.117-22.39,1.136-32.911,3.928c-3.679-18.832-4.416-38.27-5.717-57.366
			C194.295,474.543,192.125,465.865,193.851,460.884z"/>
		<path fill="#1B3B68" d="M270.018,440.117c-2.091,4.729,1.078,13.587,1.881,18.293c1.219,7.145,2.178,14.317,3.291,21.478
			c3.005,19.333,8.272,37.86,13.323,56.588c2.743,10.172,6.019,20.341,8.645,30.647c0.853,3.349,1.457,9.278,3.665,11.873
			c2.542,2.987,9.625,4.117,13.429,3.475c7.953-1.34,9.41-20.942,10.952-27.582c2.561-11.027,4.323-22.267,6.544-33.375
			c1.689,7.675,2.878,15.457,4.593,23.17c1.639,7.373,4.208,14.466,6.117,21.751c0.737,2.811,0.883,5.92,2.196,8.609
			c2.925,5.99,12.191,8.04,18.513,5.16c8.38-3.817,9.193-22.86,10.816-30.62c3.911-18.699,4.22-37.735,4.502-56.769
			c0.184-12.455,1.219-25.088,0.801-37.528c-0.216-6.44,2.561-16.339-0.827-22.175c-4.417-5.95-15.938-5.469-16.636,2.562
			c-0.523,6.033,0.611,20.918,0.711,23.74c0.645,18.33-1.647,36.608-2.497,54.934c-0.573,12.344-3.038,24.261-3.953,36.518
			c-5.621-19.975-7.992-40.995-11.262-61.561c-1.861-11.707-3.821-23.472-4.865-35.287c-0.642-7.275-2.071-24.144-13.923-16.897
			c-5.027,3.074-4.169,8.18-4.427,13.46c-0.259,5.308-0.687,10.517-1.448,15.764c-1.638,11.29-2.051,22.704-3.165,34.045
			c-1.454,14.802-5.165,29.376-7.812,43.991c-8.932-27.681-14.25-55.595-19.129-84.192c-1.004-5.888-1.452-14.196-4.36-19.48
			C282.865,435.574,272.871,433.664,270.018,440.117z"/>
		<path fill="#1B3B68" d="M411.763,434.014c-7.627,10.818-4.124,29.059-3.655,41.692c0.61,16.413,0.991,32.882,3.092,49.182
			c1.249,9.687,2.561,19.361,3.704,29.062c0.627,5.32-0.159,20.762,8.056,20.695c9.56-0.077,6.887-18.697,6.622-24.723
			c-0.145-3.306-0.519-6.569-0.83-9.858c-0.472-4.999,0.954-4.204,5.236-4.797c6.776-0.939,17.211-4.246,23.881-1.799
			c3.18,1.166,2.389-0.145,2.581,4.33c0.159,3.71,0.411,7.409,0.668,11.114c0.446,6.427-1.101,20.008,3.846,24.893
			c6.053,5.977,17.67-2.697,13.102-10.076c-2.083-9.8-1.494-20.725-1.89-30.654c-0.824-20.67-2.137-41.463-3.772-62.084
			c-1.446-18.26-1.603-37.617-21.942-44.951C439.136,421.955,419.129,423.566,411.763,434.014z M424.62,443.235
			c3.559-4.476,14.085-5.299,19.622-4.332c6.626,1.157,9.912,8.686,10.71,14.801c2.809,21.535,2.742,43.465,4.528,65.091
			c-10.881-0.707-22.403-0.201-33.084,1.985C425.537,514.562,422.249,443.235,424.62,443.235z"/>
		<path fill="#1B3B68" d="M500.13,427.807c-1.443,6.276,0.85,15.323,1.015,21.777c0.249,9.727,0.948,19.322,1.957,28.999
			c1.811,17.386,2.736,34.688,2.565,52.153c-0.07,7.088-2.926,52.665,15.508,41.203c6.358-3.954,2.851-13.541,2.226-19.541
			c-0.671-6.443-0.542-12.996-0.637-19.469c-0.068-4.639-0.034-10.195,4.01-3.972c4.778,7.352,7.992,16.665,11.518,24.791
			c2.442,5.625,4.545,15.225,10.153,18.735c6.726,4.21,17.212-1.635,12.376-9.99c-3.703-4.978-5.649-12.596-8.294-18.358
			c-3.174-6.912-7.053-13.731-9.774-20.84c-1.319-3.447-1.197-1.732-0.065-4.207c1.371-3,6.663-6.001,8.688-9.143
			c5.211-8.089,6.555-17.126,6.86-26.55c0.553-17.15,0.19-43.238-14.723-55.031c-7.172-5.672-16.238-6.268-25.028-6.419
			C512.464,421.841,501.917,420.031,500.13,427.807z M530.074,437.224c4.822,3.248,6.811,8.223,8.089,13.659
			c3.116,13.264,5.78,31.995,0.952,45.121c-1.953,6.162-8.09,17.301-16.117,16.831c-1.001-25.887-5.017-51.584-5.386-77.512
			C522.468,435.529,525.605,434.213,530.074,437.224z"/>
		<path fill="#1B3B68" d="M585.883,469.842c0.226,11.506,2.651,23.096,2.895,34.715c0.3,14.309,0.93,28.666,2.3,42.737
			c0.575,5.903,0.156,11.704,1.233,17.604c1.271,6.958,6.274,7.93,12.606,8.348c6.438,0.425,13.167-0.525,19.96-0.515
			c3.862,0.006,9.847,1.07,12.761-2.098c4.222-4.591-0.226-10.034-5.255-11.04c-4.478-0.896-9.73,0.205-14.161,0.176
			c-2.076-0.014-7.92,1.335-9.581-0.218c-1.949-1.821-1.605-13.636-1.867-17.024c-0.394-5.105-0.084-10.328-0.416-15.459
			c5.797-0.263,11.563-1.307,17.295-1.793c4.656-0.395,12.815,2.136,15.802-2.596c4.895-7.756-5.272-11.093-10.654-11.252
			c-7.793-0.229-15.492,0.457-23.23,1.251c-0.742-11.611-1.537-23.217-2.292-34.83c-0.481-7.404-0.762-14.813-0.902-22.23
			c-0.085-4.533-2.314-18.77,0.475-21.857c2.727-3.017,14.933-2.563,18.612-2.985c5.024-0.576,12.265,0.285,17.022-1.476
			c5.265-1.95,5.252-8.627,1.18-11.884c-2.979-2.381-7.733-2.438-11.362-2.464c-8.743,0.04-17.045,1.696-25.579,3.343
			c-2.956,0.571-11.758-0.228-14.321,1.61c-4.485,3.217-2.305,19.429-2.343,24.337C585.996,452.767,585.716,461.321,585.883,469.842
			z"/>
		<path fill="#1B3B68" d="M671.421,479.632c-0.198,17.83-0.999,35.664-1.521,53.487c-0.163,5.579-0.285,11.16-0.218,16.741
			c0.07,5.884-1.413,18.153,3.117,22.739c4.083,4.134,11.321,1.229,13.212-3.702c2.159-5.629,0.111-14.564,0.135-20.548
			c0.106-25.595,1.906-51.256,1.244-76.841c6.219,10.976,11.605,22.374,17.032,33.79c4.28,9.005,10.141,16.809,15.144,25.392
			c6.213,10.66,0.907,27.281,3.802,39.349c1.424,5.937,5.477,7.323,11.158,5.143c7.069-2.712,5.274-9.508,5.137-15.783
			c-1.199-42.208,0.778-84.675-1.746-126.861c-0.439-7.33-3.543-22.901-14.866-14.847c-5.66,4.026-1.815,19.502-1.636,25.594
			c0.583,19.859,0.55,39.728,0.758,59.593c-7.5-15.125-15.033-30.289-22.347-45.51c-3.352-6.976-6.187-14.085-9.182-21.209
			c-1.496-3.559-3.619-10.943-6.703-13.622c-3.576-3.108-11.981-2.462-14.222,1.98c-2.181,4.323,0.265,14.16,0.44,18.789
			C670.618,455.406,671.555,467.515,671.421,479.632z"/>
		<path fill="#1B3B68" d="M769.742,549.353c0.3,6.615-0.399,13.126,0.486,19.708c0.895,6.659,5.353,7.929,11.384,8.955
			c6.835,1.163,14.224,0.071,21.472,0.431c4.001,0.199,9.783,1.47,12.635-2.107c4.601-5.769-2.238-10.418-7.528-10.949
			c-4.236-0.426-18.924,2.175-21.463-1.356c-1.734-2.411-0.9-12.988-1.006-16.639c-0.15-5.113,0.378-10.327,0.303-15.46
			c6.119,0,12.302-1.065,18.354-1.102c4.422-0.027,10.593,2.562,14.165-1.012c6.118-6.122-2.411-11.856-8.012-12.377
			c-8.24-0.765-16.388-0.135-24.621,0.076c-0.186-11.641-0.447-23.276-0.663-34.919c-0.129-6.944-0.086-13.886,0.098-20.829
			c0.098-3.679,0.214-7.358,0.356-11.036c0.083-2.151-0.716-10.543,0.68-12.037c2.616-2.802,14.321-1.904,17.717-2.144
			c5.535-0.39,12.087,0.534,17.496-0.511c6.023-1.164,7.26-8.173,2.822-12.084c-2.86-2.52-7.616-2.8-11.238-2.992
			c-8.712-0.488-17.116,0.888-25.69,2.138c-2.984,0.435-11.742-0.754-14.361,0.929c-4.451,2.861-3.22,18.825-3.468,23.373
			c-0.474,8.682-1.038,17.367-1.395,26.054c-0.457,11.122,1.532,22.492,1.29,33.727
			C769.253,521.271,769.112,535.486,769.742,549.353z"/>
		<path fill="#1B3B68" d="M878.787,583.28c10.435-2.633,22.816-10.361,24.159-22.168c1.224-10.759-7.047-20.171-12.356-28.812
			c-11.932-19.422-23.681-39.801-19.89-63.764c1.418-8.962,3.388-15.981,12.139-18.654c18.519-5.656,13.862,17.497,14.251,28.581
			c0.488,13.889,15.193,12.069,16.501-0.278c0.981-9.259,1.716-20.655-2.369-29.133c-6.25-15.196-27.492-17.946-40.041-10.422
			c-17.75,10.641-18.812,35.815-16.092,54.577c2.82,19.457,12.832,34.024,22.919,50.148c2.94,4.699,9.328,12.032,8.662,17.952
			c-0.969,8.612-14.032,9.392-19.759,5.312c-5.151-3.67-5.545-11.943-5.255-17.824c0.219-4.446,2.877-10.444-0.93-14.036
			c-3.624-3.419-9.624-0.694-12.538,2.453c-3.831,4.137-3.638,11.093-3.46,16.366C845.349,572.032,859.659,588.106,878.787,583.28z"
			/>
		<path fill="#1B3B68" d="M971.411,588.741c12.215-3.915,21.462-15.943,17.502-28.841c-2.437-7.937-8.175-15.264-12.362-22.446
			c-10.812-18.548-19.742-37.057-17.161-59.412c0.574-4.969,2.277-12.166,5.191-16.279c1.988-2.806,4.178-3.016,7.395-4.071
			c18.319-6.004,14.039,17.032,13.895,27.853c-0.074,5.505,0.992,11.529,7.706,11.121c5.799-0.352,8.124-4.969,8.769-10.115
			c1.158-9.25,2.213-20.573-1.696-29.168c-6.089-15.893-27.525-18.331-40.461-11.021c-17.874,10.101-19.12,36.936-16.498,55.295
			c2.746,19.217,12.552,35.095,22.722,51.061c2.791,4.382,8.618,12.317,6.863,17.893c-2.425,7.698-15.941,7.156-20.696,2.574
			c-4.359-4.201-4.21-13.03-3.634-18.592c0.478-4.622,3.102-11.088-2.312-13.776c-4.03-2.002-10.054,1.299-12.346,4.733
			c-3.509,5.258-2.963,14.693-2.157,20.613C935.016,587.37,953.315,594.541,971.411,588.741z"/>
	</g>
</g>
</svg>
